<svg width="234" height="236" viewBox="0 0 234 236" fill="none" xmlns="http://www.w3.org/2000/svg">
<path fill-rule="evenodd" clip-rule="evenodd" d="M31.7867 137.377C31.7867 137.377 31.7865 137.378 31.981 137.59C32.032 137.873 32.0322 137.873 32.0322 137.873L32.048 137.87L32.0962 137.862L32.286 137.829C32.4529 137.8 32.6988 137.758 33.0144 137.706C33.6457 137.602 34.5558 137.457 35.6701 137.294C37.899 136.969 40.9433 136.573 44.2063 136.289C47.4705 136.006 50.9474 135.835 54.0433 135.959C57.1505 136.084 59.8316 136.504 61.5328 137.374L61.795 136.862C59.9748 135.93 57.1849 135.509 54.0663 135.384C50.9364 135.259 47.4327 135.431 44.1565 135.716C40.8791 136.001 37.8232 136.398 35.587 136.725C34.4687 136.888 33.5551 137.033 32.9207 137.138C32.9062 137.14 32.8918 137.143 32.8775 137.145C33.0098 137.02 33.159 136.878 33.3236 136.72C34.0442 136.03 35.0596 135.039 36.2393 133.839C38.5979 131.439 41.6176 128.195 44.2531 124.824C46.8821 121.462 49.1542 117.944 49.9847 114.999C50.4005 113.525 50.4658 112.157 49.9945 111.017C49.518 109.863 48.5156 108.997 46.9151 108.487L46.7404 109.036C48.2211 109.507 49.0658 110.277 49.4624 111.236C49.8643 112.209 49.8289 113.43 49.4306 114.843C48.6327 117.671 46.4228 121.115 43.7995 124.47C41.1827 127.816 38.1797 131.043 35.8287 133.435C34.6537 134.631 33.6425 135.617 32.9253 136.304C32.5667 136.648 32.2817 136.916 32.0865 137.099C31.9888 137.19 31.9137 137.26 31.863 137.307L31.8056 137.36L31.7867 137.377ZM31.981 137.59L32.0322 137.873L31.0537 138.049L31.7867 137.377L31.981 137.59Z" fill="white"/>
<path fill-rule="evenodd" clip-rule="evenodd" d="M123.543 94.2632C95.8914 99.1933 69.0778 110.083 49.657 126.424L50.0277 126.865C69.3519 110.605 96.0636 99.7474 123.644 94.83C151.225 89.9126 179.646 90.9404 202.378 98.4207L202.558 97.8738C179.715 90.3572 151.195 89.3331 123.543 94.2632Z" fill="white"/>
</svg>
