<svg width="178" height="69" viewBox="0 0 178 69" fill="none" xmlns="http://www.w3.org/2000/svg">
<path fill-rule="evenodd" clip-rule="evenodd" d="M96.0795 38.7338C92.3965 36.6549 88.9196 34.0421 85.2956 31.3717C72.9794 22.3033 60.0201 12.9045 46.3291 9.46481C33.1758 6.15952 22.5734 8.9207 18.3528 13.0542C42.7124 0.107007 73.1669 29.9775 91.4305 41.5755C88.8037 43.1283 86.1106 44.5762 83.3391 45.8615C66.4465 35.9981 50.2418 23.2466 35.5421 19.4689C34.0213 19.0772 32.508 18.8379 31.0307 18.5985C14.5567 15.9205 4.99485 27.6811 8.85188 39.137C16.3522 61.4215 54.2686 60.2167 74.2194 53.9748C74.2591 53.9633 74.3008 53.9495 74.3366 53.9392C76.8444 53.166 79.3287 52.266 81.7968 51.2394C96.4171 57.8359 113.778 62.8691 135.88 58.678C121.288 59.5523 99.7448 55.5646 87.8896 48.4305C90.5574 47.0799 93.1476 45.6003 95.695 44.0437C105.608 48.9786 119.264 51.366 128.556 51.5183C190.742 52.5309 174.972 -6.32318 126.286 19.2154C115.682 24.7776 105.597 32.2167 96.0795 38.7338ZM76.7603 48.5653C66.8547 52.1279 56.2946 53.6446 45.7681 53.2528C38.1552 52.9738 30.7472 51.906 22.1985 46.6268C13.6524 41.3462 8.13397 27.333 19.056 22.4954C35.0372 15.4163 63.7478 41.3722 76.7603 48.5653ZM100.152 41.0672C115.01 31.2269 143.881 8.38692 159.273 17.6231C165.755 21.5121 166.197 29.3425 162.767 34.4771C151.635 51.1521 116.832 48.6802 100.152 41.0672Z" fill="#C9DABF"/>
</svg>
