<svg width="40" height="41" viewBox="0 0 40 41" fill="none" xmlns="http://www.w3.org/2000/svg">
<rect width="40" height="41" rx="8" fill="black"/>
<path d="M34.5848 4L34.5863 4.00063C35.6774 7.14787 36.1368 9.16637 35.9649 10.0561C36.0472 11.284 35.6553 12.5362 34.7897 13.8132C34.066 14.7309 33.1754 15.3514 32.1177 15.6751C29.9729 16.3323 27.6655 16.6193 25.196 16.5365L25.1982 36.987C24.8469 37.0741 24.2471 36.722 23.3989 35.9307C22.9424 35.3094 22.6269 34.6811 22.4526 34.0458L22.4515 25.5969L17.4939 25.5975L17.4647 34.1794C17.263 35.5196 16.3583 36.4564 14.7508 36.9899L14.7471 16.5385C11.8093 16.5691 9.89714 16.3938 9.00974 16.012C6.95778 15.3311 5.58877 14.4797 4.90272 13.4576C3.56432 11.6111 3.71428 8.4612 5.35194 4.00705C5.69143 6.93974 5.9571 8.69575 6.1484 9.27497C6.62989 10.5158 7.15946 11.3881 7.73721 11.8926C8.30192 12.3874 8.99726 12.7598 9.82277 13.0091C10.3849 13.1567 11.95 13.2633 14.5174 13.3283L15.8369 13.5557C16.1381 13.5594 16.6915 14.0829 17.4935 14.7369V23.3174L22.2218 23.3164H22.451L22.4504 14.5448C23.0728 14.0178 23.5628 13.7023 23.9206 13.598L25.4707 13.3145C27.5368 13.2575 28.9024 13.1918 29.5672 13.1173C30.651 12.9164 31.53 12.5069 32.2042 11.888C32.8045 11.3295 33.3112 10.5109 33.7243 9.43214C34.1104 7.89646 34.3973 6.08583 34.5848 4Z" fill="white"/>
</svg>
